<mxfile host="app.diagrams.net" modified="2021-07-09T03:41:23.504Z" agent="5.0 (Windows NT 10.0; WOW64) AppleWebKit/537.36 (KHTML, like Gecko) Chrome/91.0.4472.124 Safari/537.36" etag="ewUqBnbwOAYCwI8AY6Ui" version="14.8.5" type="github">
  <diagram id="SOFhMPXsP6SkP4nyeTwp" name="Page-1">
    <mxGraphModel dx="1108" dy="482" grid="1" gridSize="10" guides="1" tooltips="1" connect="1" arrows="1" fold="1" page="1" pageScale="1" pageWidth="850" pageHeight="1100" math="0" shadow="0">
      <root>
        <mxCell id="0" />
        <mxCell id="1" parent="0" />
        <mxCell id="LlzXFq5HlrXZi5UD9j_n-1" value="" style="shape=image;verticalLabelPosition=bottom;labelBackgroundColor=#ffffff;verticalAlign=top;aspect=fixed;imageAspect=0;image=https://phoenixnap.com/kb/wp-content/uploads/2021/04/full-kubernetes-model-architecture.png;" vertex="1" parent="1">
          <mxGeometry x="60" y="18.04" width="755.7" height="451.96" as="geometry" />
        </mxCell>
      </root>
    </mxGraphModel>
  </diagram>
</mxfile>
